<svg xmlns="http://www.w3.org/2000/svg" viewBox="0 0 1200 630" width="1200" height="630">
  <rect width="1200" height="630" fill="#14161A"/>
  <g opacity="0.055"><rect x="0" y="0" width="1" height="630" fill="#fff"/><rect x="40" y="0" width="1" height="630" fill="#fff"/><rect x="80" y="0" width="1" height="630" fill="#fff"/><rect x="120" y="0" width="1" height="630" fill="#fff"/><rect x="160" y="0" width="1" height="630" fill="#fff"/><rect x="200" y="0" width="1" height="630" fill="#fff"/><rect x="240" y="0" width="1" height="630" fill="#fff"/><rect x="280" y="0" width="1" height="630" fill="#fff"/><rect x="320" y="0" width="1" height="630" fill="#fff"/><rect x="360" y="0" width="1" height="630" fill="#fff"/><rect x="400" y="0" width="1" height="630" fill="#fff"/><rect x="440" y="0" width="1" height="630" fill="#fff"/><rect x="480" y="0" width="1" height="630" fill="#fff"/><rect x="520" y="0" width="1" height="630" fill="#fff"/><rect x="560" y="0" width="1" height="630" fill="#fff"/><rect x="600" y="0" width="1" height="630" fill="#fff"/><rect x="640" y="0" width="1" height="630" fill="#fff"/><rect x="680" y="0" width="1" height="630" fill="#fff"/><rect x="720" y="0" width="1" height="630" fill="#fff"/><rect x="760" y="0" width="1" height="630" fill="#fff"/><rect x="800" y="0" width="1" height="630" fill="#fff"/><rect x="840" y="0" width="1" height="630" fill="#fff"/><rect x="880" y="0" width="1" height="630" fill="#fff"/><rect x="920" y="0" width="1" height="630" fill="#fff"/><rect x="960" y="0" width="1" height="630" fill="#fff"/><rect x="1000" y="0" width="1" height="630" fill="#fff"/><rect x="1040" y="0" width="1" height="630" fill="#fff"/><rect x="1080" y="0" width="1" height="630" fill="#fff"/><rect x="1120" y="0" width="1" height="630" fill="#fff"/><rect x="1160" y="0" width="1" height="630" fill="#fff"/><rect x="0" y="0" width="1200" height="1" fill="#fff"/><rect x="0" y="40" width="1200" height="1" fill="#fff"/><rect x="0" y="80" width="1200" height="1" fill="#fff"/><rect x="0" y="120" width="1200" height="1" fill="#fff"/><rect x="0" y="160" width="1200" height="1" fill="#fff"/><rect x="0" y="200" width="1200" height="1" fill="#fff"/><rect x="0" y="240" width="1200" height="1" fill="#fff"/><rect x="0" y="280" width="1200" height="1" fill="#fff"/><rect x="0" y="320" width="1200" height="1" fill="#fff"/><rect x="0" y="360" width="1200" height="1" fill="#fff"/><rect x="0" y="400" width="1200" height="1" fill="#fff"/><rect x="0" y="440" width="1200" height="1" fill="#fff"/><rect x="0" y="480" width="1200" height="1" fill="#fff"/><rect x="0" y="520" width="1200" height="1" fill="#fff"/><rect x="0" y="560" width="1200" height="1" fill="#fff"/><rect x="0" y="600" width="1200" height="1" fill="#fff"/></g>
  <rect x="92" y="182.9" width="470.25" height="13" fill="#F5E85C"/>
  <g transform="translate(92 330)">
    <path d="M33.45 0L9.3 0L9.3 -47.7L9.3 -79.2L28.8 -79.2L29.1 -55.95L32.1 -55.95Q34.05 -64.35 37.65 -70.05Q41.25 -75.75 46.8 -78.525Q52.35 -81.3 59.85 -81.3L59.85 -81.3Q73.8 -81.3 81.075 -71.55Q88.35 -61.8 88.35 -40.5L88.35 -40.5L88.35 0L64.05 0L64.05 -37.8Q64.05 -50.1 60.525 -55.725Q57 -61.35 50.1 -61.35L50.1 -61.35Q44.4 -61.35 40.725 -57.9Q37.05 -54.45 35.25 -48.75Q33.45 -43.05 33.45 -36L33.45 -36L33.45 0" fill="#FBFAF6"/>
    <path d="M126.15 2.1L126.15 2.1Q112.05 2.1 104.925 -7.425Q97.8 -16.95 97.8 -36.45L97.8 -36.45L97.8 -79.2L122.1 -79.2L122.1 -39.6Q122.1 -28.5 125.4 -23.025Q128.7 -17.55 135.45 -17.55L135.45 -17.55Q139.5 -17.55 142.425 -19.575Q145.35 -21.6 147.375 -25.275Q149.4 -28.95 150.375 -33.75Q151.35 -38.55 151.35 -44.25L151.35 -44.25L151.35 -79.2L175.5 -79.2L175.5 -32.1L175.5 0L156.3 0L155.85 -24.45L152.85 -24.45Q150.6 -15.15 147.225 -9.225Q143.85 -3.3 138.75 -0.6Q133.65 2.1 126.15 2.1" fill="#FBFAF6"/>
    <path d="M211.65 0L187.35 0L187.35 -36.75L187.35 -79.2L207.15 -79.2L207.6 -52.35L210.6 -52.35Q211.65 -62.85 214.575 -69.075Q217.5 -75.3 222.975 -78.15Q228.45 -81 236.55 -81L236.55 -81Q237.75 -81 239.25 -80.925Q240.75 -80.85 242.7 -80.55L242.7 -80.55L241.8 -54.75Q239.4 -55.95 236.625 -56.325Q233.85 -56.7 231.75 -56.7L231.75 -56.7Q225.9 -56.7 221.625 -54.45Q217.35 -52.2 214.875 -47.55Q212.4 -42.9 211.65 -35.85L211.65 -35.85L211.65 0" fill="#FBFAF6"/>
    <path d="M279.9 2.1L279.9 2.1Q271.95 2.1 265.5 0.675Q259.05 -0.75 254.25 -3.45Q249.45 -6.15 246.375 -9.975Q243.3 -13.8 242.1 -18.45L242.1 -18.45L260.1 -26.4Q261.15 -23.85 263.775 -21.225Q266.4 -18.6 270.825 -16.95Q275.25 -15.3 281.55 -15.3L281.55 -15.3Q287.55 -15.3 290.925 -17.025Q294.3 -18.75 294.3 -22.05L294.3 -22.05Q294.3 -24.45 292.425 -25.875Q290.55 -27.3 286.8 -28.425Q283.05 -29.55 277.5 -30.6L277.5 -30.6Q271.8 -31.8 265.95 -33.375Q260.1 -34.95 255 -37.725Q249.9 -40.5 246.825 -45.075Q243.75 -49.65 243.75 -56.7L243.75 -56.7Q243.75 -64.05 247.65 -69.525Q251.55 -75 259.275 -78.15Q267 -81.3 278.1 -81.3L278.1 -81.3Q288 -81.3 295.5 -78.75Q303 -76.2 308.025 -71.475Q313.05 -66.75 315 -60.15L315 -60.15L295.65 -53.25Q294.9 -56.55 292.575 -58.95Q290.25 -61.35 286.725 -62.625Q283.2 -63.9 278.4 -63.9L278.4 -63.9Q272.55 -63.9 269.325 -62.1Q266.1 -60.3 266.1 -57.3L266.1 -57.3Q266.1 -54.9 268.275 -53.325Q270.45 -51.75 274.5 -50.7Q278.55 -49.65 284.1 -48.45L284.1 -48.45Q289.95 -47.25 295.725 -45.675Q301.5 -44.1 306.225 -41.475Q310.95 -38.85 313.725 -34.575Q316.5 -30.3 316.5 -23.55L316.5 -23.55Q316.5 -15.6 312.3 -9.825Q308.1 -4.05 299.925 -0.975Q291.75 2.1 279.9 2.1" fill="#FBFAF6"/>
    <path d="M347.25 0L323.1 0L323.1 -79.2L347.25 -79.2L347.25 0M335.25 -90.3L335.25 -90.3Q328.35 -90.3 324.675 -93.225Q321 -96.15 321 -101.55L321 -101.55Q321 -107.25 324.675 -110.175Q328.35 -113.1 335.25 -113.1L335.25 -113.1Q342.3 -113.1 345.975 -110.175Q349.65 -107.25 349.65 -101.7L349.65 -101.7Q349.65 -96.15 345.975 -93.225Q342.3 -90.3 335.25 -90.3" fill="#FBFAF6"/>
    <path d="M377.85 2.1L377.85 2.1Q371.25 2.1 366.15 -0.525Q361.05 -3.15 358.2 -8.175Q355.35 -13.2 355.35 -20.4L355.35 -20.4Q355.35 -27.15 357.975 -31.575Q360.6 -36 365.625 -38.625Q370.65 -41.25 377.7 -42.975Q384.75 -44.7 393.75 -46.05L393.75 -46.05Q398.1 -46.8 401.025 -47.475Q403.95 -48.15 405.45 -49.65Q406.95 -51.15 406.95 -54L406.95 -54Q406.95 -57.75 404.25 -60.45Q401.55 -63.15 395.55 -63.15L395.55 -63.15Q391.35 -63.15 387.975 -61.65Q384.6 -60.15 382.2 -57.3Q379.8 -54.45 378.6 -50.4L378.6 -50.4L357.3 -56.7Q359.25 -63 362.775 -67.65Q366.3 -72.3 371.25 -75.375Q376.2 -78.45 382.575 -79.875Q388.95 -81.3 396.15 -81.3L396.15 -81.3Q408.15 -81.3 415.725 -77.475Q423.3 -73.65 426.975 -65.625Q430.65 -57.6 430.65 -45L430.65 -45L430.65 -32.85Q430.65 -27.45 430.875 -21.975Q431.1 -16.5 431.475 -11.025Q431.85 -5.55 432.45 0L432.45 0L411.15 0Q410.55 -3.45 409.95 -8.325Q409.35 -13.2 409.05 -18.3L409.05 -18.3L406.2 -18.3Q404.1 -12.6 400.125 -7.875Q396.15 -3.15 390.525 -0.525Q384.9 2.1 377.85 2.1M388.8 -15L388.8 -15Q391.5 -15 394.275 -15.975Q397.05 -16.95 399.6 -18.675Q402.15 -20.4 404.25 -22.95Q406.35 -25.5 407.4 -28.5L407.4 -28.5L407.1 -40.35L410.4 -39.6Q407.55 -37.8 404.1 -36.75Q400.65 -35.7 397.125 -35.1Q393.6 -34.5 390.225 -33.825Q386.85 -33.15 384.225 -32.1Q381.6 -31.05 380.1 -29.25Q378.6 -27.45 378.6 -24.3L378.6 -24.3Q378.6 -20.1 381.45 -17.55Q384.3 -15 388.8 -15" fill="#FBFAF6"/>
    <path d="M451.2 1.95L451.2 1.95Q443.4 1.95 439.575 -1.35Q435.75 -4.65 435.75 -11.55L435.75 -11.55Q435.75 -18.6 439.575 -21.9Q443.4 -25.2 451.2 -25.2L451.2 -25.2Q459.15 -25.2 463.05 -21.9Q466.95 -18.6 466.95 -11.55L466.95 -11.55Q466.95 1.95 451.2 1.95" fill="#F5E85C"/>
  </g>
  <text x="92" y="404" font-family="ui-monospace, 'IBM Plex Mono', Menlo, monospace"
    font-size="25" letter-spacing="3.2" fill="#FBFAF6" fill-opacity="0.6">NCLEX-RN PRACTICE QUESTIONS, WRITTEN BY NURSES</text>
  <text x="92" y="564" font-family="ui-monospace, 'IBM Plex Mono', Menlo, monospace"
    font-size="23" letter-spacing="2" fill="#FBFAF6" fill-opacity="0.38">1,200 questions · 50 free · no card</text>
</svg>
